<svg class="icon"
    style="width: 1em;height: 1em;vertical-align: middle;fill: currentColor;overflow: hidden;"
    viewBox="0 0 1024 1024" version="1.1" xmlns="http://www.w3.org/2000/svg" p-id="960">
    <path
        d="M863.36 541.696a32 32 0 1 1 0 64h-704a32 32 0 1 1 0-64h704z m-160-248.896a32 32 0 0 1 45.312 0l135.744 135.744 2.56 2.816 2.048 3.008a32 32 0 0 1-25.664 51.072h-704a32 32 0 1 1 0-64h627.52L703.36 338.048l-3.712-4.48a32 32 0 0 1 3.712-40.768z"
        fill="#000000" p-id="961"></path>
</svg>